<?xml version="1.0" encoding="utf-8"?>
<!-- Generator: Adobe Illustrator 16.0.4, SVG Export Plug-In . SVG Version: 6.00 Build 0)  -->
<!DOCTYPE svg PUBLIC "-//W3C//DTD SVG 1.1//EN" "http://www.w3.org/Graphics/SVG/1.1/DTD/svg11.dtd">
<svg version="1.1" id="Layer_1" xmlns="http://www.w3.org/2000/svg" xmlns:xlink="http://www.w3.org/1999/xlink" x="0px" y="0px"
	 width="1133.9px" height="1133.9px" viewBox="0 0 1133.9 1133.9" style="enable-background:new 0 0 1133.9 1133.9;"
	 xml:space="preserve">
<style type="text/css">
<![CDATA[
	.st0{fill:url(#SVGID_1_);}
	.st1{fill:url(#SVGID_2_);}
	.st2{fill:url(#SVGID_3_);}
	.st3{fill:url(#SVGID_4_);}
	.st4{fill:url(#SVGID_5_);}
	.st5{fill:url(#SVGID_6_);}
	.st6{fill:url(#SVGID_7_);}
	.st7{fill:url(#SVGID_8_);}
	.st8{fill:url(#SVGID_9_);}
	.st9{display:none;}
]]>
</style>
<g id="Layer_1_1_" class="st9">
</g>
<g id="Layer_2">
	
		<radialGradient id="SVGID_1_" cx="659.2275" cy="665.4277" r="74.0897" gradientTransform="matrix(1 0 0 -1.8311 -71 1467.907)" gradientUnits="userSpaceOnUse">
		<stop  offset="0" style="stop-color:#8CC442"/>
		<stop  offset="0.2251" style="stop-color:#5EAE4E"/>
		<stop  offset="0.4612" style="stop-color:#369B58"/>
		<stop  offset="0.6764" style="stop-color:#188D60"/>
		<stop  offset="0.8615" style="stop-color:#068564"/>
		<stop  offset="0.9949" style="stop-color:#008266"/>
	</radialGradient>
	<circle class="st0" cx="587.6" cy="347.8" r="51.6"/>
	
		<radialGradient id="SVGID_2_" cx="731.8242" cy="335.5312" r="168.2361" gradientTransform="matrix(0.9601 -0.2797 -0.5034 -1.7282 45.769 1383.2112)" gradientUnits="userSpaceOnUse">
		<stop  offset="0" style="stop-color:#98C45E"/>
		<stop  offset="0.1557" style="stop-color:#6FB260"/>
		<stop  offset="0.3356" style="stop-color:#48A162"/>
		<stop  offset="0.513" style="stop-color:#289464"/>
		<stop  offset="0.6847" style="stop-color:#128A65"/>
		<stop  offset="0.8483" style="stop-color:#058466"/>
		<stop  offset="0.9949" style="stop-color:#008266"/>
	</radialGradient>
	<path class="st1" d="M289.8,534.4c0,0,45.1-26.5,100.7,9.7c55.6,36.2,78.4,40.9,92.3,35.5c13.9-5.4,28.1-33.7,27.4-70.5
		c0,0,16.5,27.2,23.9,82.8c0,0-20.8-5.6-51,43.4c0,0-24.4,32.7-12,50.6c12.4,17.9,28.1,50.6,49,46.6c0,0-5.2,17.9-24.7,56.8
		C495.4,789.2,464.5,549.2,289.8,534.4z"/>
	
		<radialGradient id="SVGID_3_" cx="613.6172" cy="295.9746" r="196.0169" gradientTransform="matrix(0.9603 0.279 0.5022 -1.7285 -125.7836 933.1768)" gradientUnits="userSpaceOnUse">
		<stop  offset="0" style="stop-color:#98C45E"/>
		<stop  offset="0.1557" style="stop-color:#6FB260"/>
		<stop  offset="0.3356" style="stop-color:#48A162"/>
		<stop  offset="0.513" style="stop-color:#289464"/>
		<stop  offset="0.6847" style="stop-color:#128A65"/>
		<stop  offset="0.8483" style="stop-color:#058466"/>
		<stop  offset="0.9949" style="stop-color:#008266"/>
	</radialGradient>
	<path class="st2" d="M670.2,508.6c0,0-0.2,69.4,32.4,72c32.6,2.6,48.7-13.3,61.3-20.7c12.6-7.4,68.5-56.8,126.4-25.8
		c0,0-158.1-10.5-205.6,254.8c0,0-15.4-29.9-16.6-35.2c0,0,12.6-13.7,10.4-28.3c0,0,2.6-2,7.3-5.1c0,0,9.2-27.7,12.5-54.3
		c0,0,5-14.8-12-36.4c-2.7-3.4-13.6-22.5-13.6-22.5s0.4-22.2-23-36.6C649.6,570.6,658.9,528.3,670.2,508.6z"/>
	
		<radialGradient id="SVGID_4_" cx="753.6406" cy="473.4893" r="50.5881" gradientTransform="matrix(1 0 0 -1 -71 1037.4004)" gradientUnits="userSpaceOnUse">
		<stop  offset="0" style="stop-color:#98C45E"/>
		<stop  offset="0.9949" style="stop-color:#008266"/>
	</radialGradient>
	<circle class="st3" cx="719" cy="532.6" r="31.3"/>
	
		<radialGradient id="SVGID_5_" cx="556.8125" cy="480.8232" r="48.7509" gradientTransform="matrix(1 0 0 -1 -71 1037.4004)" gradientUnits="userSpaceOnUse">
		<stop  offset="0" style="stop-color:#98C45E"/>
		<stop  offset="0.1353" style="stop-color:#7CB85F"/>
		<stop  offset="0.4232" style="stop-color:#47A162"/>
		<stop  offset="0.6728" style="stop-color:#209064"/>
		<stop  offset="0.8716" style="stop-color:#098666"/>
		<stop  offset="0.9949" style="stop-color:#008266"/>
	</radialGradient>
	<circle class="st4" cx="456.8" cy="532.6" r="31.3"/>
	
		<radialGradient id="SVGID_6_" cx="659.4502" cy="-31.457" r="206.2439" gradientTransform="matrix(1 0 0 -1.7703 -71 895.6591)" gradientUnits="userSpaceOnUse">
		<stop  offset="0" style="stop-color:#8CC442"/>
		<stop  offset="7.401040e-02" style="stop-color:#7BBC46"/>
		<stop  offset="0.2833" style="stop-color:#4FA752"/>
		<stop  offset="0.4857" style="stop-color:#2D975B"/>
		<stop  offset="0.6765" style="stop-color:#148B61"/>
		<stop  offset="0.8512" style="stop-color:#058465"/>
		<stop  offset="0.9949" style="stop-color:#008266"/>
	</radialGradient>
	<path class="st5" d="M521.3,792.3h134.3c0,0-20-48.8-20.5-58.4c0,0-13.4-5.1-31-16.4c0,0-10.2-6.3-13.6-7.3s-13.6-5.9-35.7,8.8
		c0,0-10,7.7-12.5,8.3C542.5,727.2,522.3,789.8,521.3,792.3z"/>
	
		<radialGradient id="SVGID_7_" cx="674.0879" cy="231.7998" r="229.5465" gradientTransform="matrix(1 0 0 -1.6 -71 1075.2484)" gradientUnits="userSpaceOnUse">
		<stop  offset="0" style="stop-color:#98C45E"/>
		<stop  offset="0.1353" style="stop-color:#7CB85F"/>
		<stop  offset="0.4232" style="stop-color:#47A162"/>
		<stop  offset="0.6728" style="stop-color:#209064"/>
		<stop  offset="0.8716" style="stop-color:#098666"/>
		<stop  offset="0.9949" style="stop-color:#008266"/>
	</radialGradient>
	<path class="st6" d="M729.7,385.4c-29.2,25.1-53.4,54.2-71.9,88.1c-15.3,28-25.8,57.5-31.6,88.6l-24.5-13L612,584
		c2.2,7.5,3.3,17.3,2.8,22.5c-4-0.9-9.5-2.7-15.1-4.8c0.9-8.1,1.3-17.7-5.2-25c-3.8-4.2-9.2-6.6-15.1-6.6c0,0-15.6,2.4-25.3,11.4
		c-2.7,2.5-2.9-12-3.3-11.8c-7.4-45.7-24.5-88.1-52-126.5c-15.4-21.5-33.1-41-53.3-58.1c-1.4-1.2-2.7-2.6-4.1-3.8
		c0.1-0.6,0.2-1.3,0.3-2c97,50.5,193.9,50.9,290.7,0.6C733.3,383.5,731,384.2,729.7,385.4z"/>
	
		<radialGradient id="SVGID_8_" cx="1074.2744" cy="146.4028" r="130.0797" gradientTransform="matrix(-4.371139e-08 -1 -1.8364 8.027290e-08 855.7069 1775.0688)" gradientUnits="userSpaceOnUse">
		<stop  offset="0" style="stop-color:#008266"/>
		<stop  offset="0.1239" style="stop-color:#078566"/>
		<stop  offset="0.3104" style="stop-color:#1C8E65"/>
		<stop  offset="0.5364" style="stop-color:#3E9D63"/>
		<stop  offset="0.7909" style="stop-color:#6CB160"/>
		<stop  offset="1" style="stop-color:#98C45E"/>
	</radialGradient>
	<path class="st7" d="M668.2,712.9c0,0-1.2,1-3.4,2.3c-4.8,2.8-14.3,6.8-26.4,3.7c-3.5-0.9-7.1-2.3-11-4.6
		c-23.3-13.6-41.4-36.4-83.5-6.5c0,0-21,16.8-32.2,9.7c-2.2-1.4-28.5-37.2-28.8-39.8c-0.2-1.8-0.4-10.2,4.6-18.4s26.5-46.5,43-49.9
		c2.8-0.6,7-2.8,10.4-3c12.7-0.6,6-3.5,17.3-6.9c2.5-0.7,2.4-7,5.3-10.3s8.8-3.6,15.7-3.8c10.6-0.3,3.1,19.9,5,26.4
		c0,0,30.9,13.8,38.5,9.8c14.2-7.5,4-42,4-42c19,10.1,26.2,18.9,26,34c0,0,4.7,8.7,14,23.5c3.1,5,10.6,15.4,11.9,21.7
		C680.2,666.2,672.2,696.8,668.2,712.9z"/>
	
		<radialGradient id="SVGID_9_" cx="726.9629" cy="300.2783" r="21.9314" gradientTransform="matrix(1 0 0 -1 -71 1037.4004)" gradientUnits="userSpaceOnUse">
		<stop  offset="0" style="stop-color:#008266"/>
		<stop  offset="0.1707" style="stop-color:#048465"/>
		<stop  offset="0.3398" style="stop-color:#108962"/>
		<stop  offset="0.5084" style="stop-color:#24935D"/>
		<stop  offset="0.6766" style="stop-color:#40A056"/>
		<stop  offset="0.843" style="stop-color:#63B14C"/>
		<stop  offset="1" style="stop-color:#8CC442"/>
	</radialGradient>
	<path class="st8" d="M664.8,733.1c-0.8,2-1.4,9.6-2.2,9.9c0-0.1-4.6,3.7-5.4,3.6c-1.1-0.1-5.6-2.5-5.9-2.8c-1.8-1.9-2.7-3-3.7-5.4
		c-1.2-2.8-3.1-7.1-3.5-9.4c-0.9-5.7,3.5-2.8,7.3-1.7c2.4,0.7,2.6,0.5,5-0.2c0.2-0.1,4-2.8,5.9-2.8c1.3,0,2.6,2.9,2.8,5.7
		C665.2,731,665.1,732.2,664.8,733.1z"/>
</g>
</svg>
