<?xml version="1.0" encoding="utf-8"?>
<!-- Generator: Adobe Illustrator 16.0.4, SVG Export Plug-In . SVG Version: 6.00 Build 0)  -->
<!DOCTYPE svg PUBLIC "-//W3C//DTD SVG 1.1//EN" "http://www.w3.org/Graphics/SVG/1.1/DTD/svg11.dtd">
<svg version="1.1" id="Layer_1" xmlns="http://www.w3.org/2000/svg" xmlns:xlink="http://www.w3.org/1999/xlink" x="0px" y="0px"
	 width="200px" height="50px" viewBox="250 75 200 50" style="enable-background:new 250 75 200 50;" xml:space="preserve">
<style type="text/css">
<![CDATA[
	.st0{font-family:'ReklameScript-RegularDEMO';}
	.st1{enable-background:new    ;}
	.st2{fill:#8EC045;}
	.st3{fill:#F9AF32;}
	.st4{fill:url(#SVGID_1_);}
	.st5{fill:url(#SVGID_2_);}
	.st6{fill:url(#SVGID_3_);}
	.st7{fill:url(#SVGID_4_);}
	.st8{fill:url(#SVGID_5_);}
	.st9{fill:url(#SVGID_6_);}
	.st10{fill:url(#SVGID_7_);}
	.st11{fill:url(#SVGID_8_);}
	.st12{fill:url(#SVGID_9_);}
	.st13{fill:url(#SVGID_10_);}
	.st14{fill:url(#SVGID_11_);}
	.st15{fill:url(#SVGID_12_);}
	.st16{fill:url(#SVGID_13_);}
	.st17{fill:url(#SVGID_14_);}
	.st18{fill:url(#SVGID_15_);}
	.st19{fill:url(#SVGID_16_);}
	.st20{fill:url(#SVGID_17_);}
	.st21{fill:url(#SVGID_18_);}
	.st22{fill:url(#SVGID_19_);}
	.st23{fill:url(#SVGID_20_);}
	.st24{fill:url(#SVGID_21_);}
	.st25{fill:url(#SVGID_22_);}
	.st26{fill:url(#SVGID_23_);}
	.st27{fill:url(#SVGID_24_);}
	.st28{fill:url(#SVGID_25_);}
	.st29{fill:url(#SVGID_26_);}
	.st30{font-size:26.522;}
]]>
</style>
<g>
	
		<radialGradient id="SVGID_1_" cx="348.165" cy="94.0205" r="12.6377" gradientTransform="matrix(1 5.496782e-03 9.723918e-03 -1.769 -73.0275 263.2527)" gradientUnits="userSpaceOnUse">
		<stop  offset="0" style="stop-color:#008367"/>
		<stop  offset="0.2616" style="stop-color:#49985F"/>
		<stop  offset="0.5541" style="stop-color:#6FAD54"/>
		<stop  offset="0.8102" style="stop-color:#86BB4A"/>
		<stop  offset="1" style="stop-color:#8EC046"/>
	</radialGradient>
	<path class="st4" d="M275.6,77.3c0,0-7.5,9,0,15.9C275.6,93.2,283,86.9,275.6,77.3z"/>
	
		<radialGradient id="SVGID_2_" cx="355.8418" cy="15.7222" r="6.6194" gradientTransform="matrix(1 0 0 -1 -71 103.5)" gradientUnits="userSpaceOnUse">
		<stop  offset="0" style="stop-color:#AB791E"/>
		<stop  offset="0.2066" style="stop-color:#BC8422"/>
		<stop  offset="0.7244" style="stop-color:#E7A22E"/>
		<stop  offset="1" style="stop-color:#F9AF33"/>
	</radialGradient>
	<path class="st5" d="M284.6,79.9c0,0-5.7,2.3-4.1,7.8C280.5,87.7,285.7,86.8,284.6,79.9z"/>
	
		<radialGradient id="SVGID_3_" cx="157.3135" cy="93.6528" r="4.561" gradientTransform="matrix(0.8213 -0.5705 -1.156 -1.664 244.9322 332.0751)" gradientUnits="userSpaceOnUse">
		<stop  offset="0" style="stop-color:#004234"/>
		<stop  offset="0.3069" style="stop-color:#045B48"/>
		<stop  offset="0.6094" style="stop-color:#047058"/>
		<stop  offset="0.8505" style="stop-color:#017E63"/>
		<stop  offset="1" style="stop-color:#008367"/>
	</radialGradient>
	<path class="st6" d="M266.5,79.9c0,0-1.3,6,4.1,7.8C270.5,87.7,272.7,82.9,266.5,79.9z"/>
	
		<radialGradient id="SVGID_4_" cx="166.2026" cy="50.6396" r="8.9442" gradientTransform="matrix(0.7948 -0.6069 -1.1462 -1.5012 193.6382 275.0234)" gradientUnits="userSpaceOnUse">
		<stop  offset="0" style="stop-color:#AB791E"/>
		<stop  offset="0.2066" style="stop-color:#BC8422"/>
		<stop  offset="0.7244" style="stop-color:#E7A22E"/>
		<stop  offset="1" style="stop-color:#F9AF33"/>
	</radialGradient>
	<path class="st7" d="M268.1,88c0,0-1.8,8,5.4,10.4C273.5,98.4,276.4,92,268.1,88z"/>
	
		<radialGradient id="SVGID_5_" cx="-113.0513" cy="210.7412" r="8.9294" gradientTransform="matrix(-0.6573 -0.7537 -1.2603 1.0991 473.7265 -219.1771)" gradientUnits="userSpaceOnUse">
		<stop  offset="0" style="stop-color:#004234"/>
		<stop  offset="0.3069" style="stop-color:#045B48"/>
		<stop  offset="0.6094" style="stop-color:#047058"/>
		<stop  offset="0.8505" style="stop-color:#017E63"/>
		<stop  offset="1" style="stop-color:#008367"/>
	</radialGradient>
	<path class="st8" d="M282.9,88.1c0,0-7.6,3-5.6,10.3C277.4,98.4,284.3,97.2,282.9,88.1z"/>
	
		<radialGradient id="SVGID_6_" cx="452.1914" cy="186.4619" r="4.2112" gradientTransform="matrix(0.7832 0.6218 1.1586 -1.4594 -282.6935 87.5645)" gradientUnits="userSpaceOnUse">
		<stop  offset="0" style="stop-color:#AB791E"/>
		<stop  offset="0.4888" style="stop-color:#D19327"/>
		<stop  offset="1" style="stop-color:#F9AF33"/>
	</radialGradient>
	<path class="st9" d="M285.8,90.3c0,0-3.6,3.3-1,6.9C284.8,97.2,288.4,95.1,285.8,90.3z"/>
	
		<radialGradient id="SVGID_7_" cx="188.3516" cy="96.7837" r="4.118" gradientTransform="matrix(0.8557 -0.5175 -1.2668 -2.0947 225.059 395.39)" gradientUnits="userSpaceOnUse">
		<stop  offset="0" style="stop-color:#004234"/>
		<stop  offset="0.3069" style="stop-color:#045B48"/>
		<stop  offset="0.6094" style="stop-color:#047058"/>
		<stop  offset="0.8505" style="stop-color:#017E63"/>
		<stop  offset="1" style="stop-color:#008367"/>
	</radialGradient>
	<path class="st10" d="M265.3,90.3c0,0,3.6,3.3,1,6.9C266.3,97.2,262.6,95.1,265.3,90.3z"/>
	
		<radialGradient id="SVGID_8_" cx="333.3071" cy="12.8101" r="7.5615" gradientTransform="matrix(1 0 0 -1 -71 103.5)" gradientUnits="userSpaceOnUse">
		<stop  offset="0" style="stop-color:#AB791E"/>
		<stop  offset="0.2066" style="stop-color:#BC8422"/>
		<stop  offset="0.7244" style="stop-color:#E7A22E"/>
		<stop  offset="1" style="stop-color:#F9AF33"/>
	</radialGradient>
	<path class="st11" d="M260,84.9c0,0,4.8-0.6,5.8,3.8C265.9,88.8,261.9,90.1,260,84.9z"/>
	
		<radialGradient id="SVGID_9_" cx="478.6025" cy="219.2822" r="6.0264" gradientTransform="matrix(0.6903 0.7235 1.0851 -1.0353 -278.2322 -30.0798)" gradientUnits="userSpaceOnUse">
		<stop  offset="0" style="stop-color:#008367"/>
		<stop  offset="0.2616" style="stop-color:#49985F"/>
		<stop  offset="0.5541" style="stop-color:#6FAD54"/>
		<stop  offset="0.8102" style="stop-color:#86BB4A"/>
		<stop  offset="1" style="stop-color:#8EC046"/>
	</radialGradient>
	<path class="st12" d="M291,84.9c0,0-4.8-0.6-5.8,3.8C285.1,88.8,289.1,90.1,291,84.9z"/>
	
		<radialGradient id="SVGID_10_" cx="331.6558" cy="9.5957" r="5.2178" gradientTransform="matrix(1 0 0 -1 -71 103.5)" gradientUnits="userSpaceOnUse">
		<stop  offset="0" style="stop-color:#008367"/>
		<stop  offset="0.2616" style="stop-color:#49985F"/>
		<stop  offset="0.5541" style="stop-color:#6FAD54"/>
		<stop  offset="0.8102" style="stop-color:#86BB4A"/>
		<stop  offset="1" style="stop-color:#8EC046"/>
	</radialGradient>
	<path class="st13" d="M257.6,90.6c0,0,3.6-2.3,6,0.8C263.6,91.3,261,93.9,257.6,90.6z"/>
	
		<radialGradient id="SVGID_11_" cx="-71.0288" cy="213.4463" r="1.8901" gradientTransform="matrix(-0.4113 -0.9115 -2.6488 1.1953 826.7422 -227.1733)" gradientUnits="userSpaceOnUse">
		<stop  offset="0" style="stop-color:#004234"/>
		<stop  offset="6.857526e-02" style="stop-color:#014738"/>
		<stop  offset="0.5051" style="stop-color:#046651"/>
		<stop  offset="0.8281" style="stop-color:#027B61"/>
		<stop  offset="1" style="stop-color:#008367"/>
	</radialGradient>
	<path class="st14" d="M293.4,90.6c0,0-3.6-2.3-6,0.8C287.4,91.3,290,93.9,293.4,90.6z"/>
	
		<radialGradient id="SVGID_12_" cx="330.6011" cy="5.7192" r="5.2647" gradientTransform="matrix(1 0 0 -1 -71 103.5)" gradientUnits="userSpaceOnUse">
		<stop  offset="0" style="stop-color:#AB791E"/>
		<stop  offset="0.2066" style="stop-color:#BC8422"/>
		<stop  offset="0.7244" style="stop-color:#E7A22E"/>
		<stop  offset="1" style="stop-color:#F9AF33"/>
	</radialGradient>
	<path class="st15" d="M256.9,95.6c0,0,2.6-2.6,5.3-0.5C262.2,95.1,260.5,97.7,256.9,95.6z"/>
	
		<radialGradient id="SVGID_13_" cx="333.7578" cy="1.7178" r="4.3418" gradientTransform="matrix(1 0 0 -1 -71 103.5)" gradientUnits="userSpaceOnUse">
		<stop  offset="0" style="stop-color:#008367"/>
		<stop  offset="0.2616" style="stop-color:#49985F"/>
		<stop  offset="0.5541" style="stop-color:#6FAD54"/>
		<stop  offset="0.8102" style="stop-color:#86BB4A"/>
		<stop  offset="1" style="stop-color:#8EC046"/>
	</radialGradient>
	<path class="st16" d="M263.2,96.4c0,0,2,2.1,0.3,4.2C263.4,100.5,261.4,99.1,263.2,96.4z"/>
	
		<radialGradient id="SVGID_14_" cx="444.2695" cy="160.9775" r="3.3551" gradientTransform="matrix(0.8302 0.5574 0.9423 -1.4035 -231.1524 78.1186)" gradientUnits="userSpaceOnUse">
		<stop  offset="0" style="stop-color:#004234"/>
		<stop  offset="0.3069" style="stop-color:#045B48"/>
		<stop  offset="0.6094" style="stop-color:#047058"/>
		<stop  offset="0.8505" style="stop-color:#017E63"/>
		<stop  offset="1" style="stop-color:#008367"/>
	</radialGradient>
	<path class="st17" d="M287.9,96.4c0,0,1.8,2.3-0.2,4.2C287.7,100.5,285.8,98.9,287.9,96.4z"/>
	
		<radialGradient id="SVGID_15_" cx="339.1284" cy="1.0347" r="4.8483" gradientTransform="matrix(1 0 0 -1 -71 103.5)" gradientUnits="userSpaceOnUse">
		<stop  offset="0" style="stop-color:#008367"/>
		<stop  offset="0.2616" style="stop-color:#49985F"/>
		<stop  offset="0.5541" style="stop-color:#6FAD54"/>
		<stop  offset="0.8102" style="stop-color:#86BB4A"/>
		<stop  offset="1" style="stop-color:#8EC046"/>
	</radialGradient>
	<path class="st18" d="M268.3,96.7c0,0,3,2,1.5,4.9C269.8,101.7,266.9,100.5,268.3,96.7z"/>
	
		<radialGradient id="SVGID_16_" cx="355.249" cy="1.3252" r="4.903" gradientTransform="matrix(1 0 0 -1 -71 103.5)" gradientUnits="userSpaceOnUse">
		<stop  offset="0" style="stop-color:#008367"/>
		<stop  offset="0.2616" style="stop-color:#49985F"/>
		<stop  offset="0.5541" style="stop-color:#6FAD54"/>
		<stop  offset="0.8102" style="stop-color:#86BB4A"/>
		<stop  offset="1" style="stop-color:#8EC046"/>
	</radialGradient>
	<path class="st19" d="M282.8,96.7c0,0-3,2-1.5,4.9C281.3,101.7,284.2,100.5,282.8,96.7z"/>
	
		<radialGradient id="SVGID_17_" cx="363.377" cy="5.647" r="4.3878" gradientTransform="matrix(1 0 0 -1 -71 103.5)" gradientUnits="userSpaceOnUse">
		<stop  offset="0" style="stop-color:#008367"/>
		<stop  offset="0.2616" style="stop-color:#49985F"/>
		<stop  offset="0.5541" style="stop-color:#6FAD54"/>
		<stop  offset="0.8102" style="stop-color:#86BB4A"/>
		<stop  offset="1" style="stop-color:#8EC046"/>
	</radialGradient>
	<path class="st20" d="M294.1,95.7c0,0-2.4-2.6-5.1-0.7C289,95,290.5,97.6,294.1,95.7z"/>
	
		<radialGradient id="SVGID_18_" cx="346.5439" cy="102.832" r="3.5829" gradientTransform="matrix(1 0 0 -1.8311 -71 284.7778)" gradientUnits="userSpaceOnUse">
		<stop  offset="0" style="stop-color:#8EC046"/>
		<stop  offset="0.245" style="stop-color:#68A856"/>
		<stop  offset="0.5465" style="stop-color:#3E9361"/>
		<stop  offset="0.807" style="stop-color:#1A8766"/>
		<stop  offset="0.9949" style="stop-color:#008367"/>
	</radialGradient>
	<circle class="st21" cx="275.5" cy="101.2" r="2.5"/>
	
		<radialGradient id="SVGID_19_" cx="292.7485" cy="32.8418" r="8.1355" gradientTransform="matrix(0.9601 -0.2797 -0.5034 -1.7282 10.5856 252.0069)" gradientUnits="userSpaceOnUse">
		<stop  offset="0" style="stop-color:#99C55F"/>
		<stop  offset="0.1378" style="stop-color:#7DB363"/>
		<stop  offset="0.3673" style="stop-color:#559D66"/>
		<stop  offset="0.5909" style="stop-color:#338E67"/>
		<stop  offset="0.8039" style="stop-color:#148667"/>
		<stop  offset="0.9949" style="stop-color:#008367"/>
	</radialGradient>
	<path class="st22" d="M261.1,110.3c0,0,2.2-1.3,4.9,0.5c2.7,1.7,3.8,2,4.5,1.7c0.7-0.3,1.4-1.6,1.3-3.4c0,0,0.8,1.3,1.2,4
		c0,0-1-0.3-2.5,2.1c0,0-1.2,1.6-0.6,2.4c0.6,0.9,1.4,2.4,2.4,2.2c0,0-0.3,0.9-1.2,2.8C271,122.6,269.6,111,261.1,110.3z"/>
	
		<radialGradient id="SVGID_20_" cx="384.7627" cy="97.5703" r="9.4784" gradientTransform="matrix(0.9603 0.279 0.5022 -1.7285 -141.7887 174.386)" gradientUnits="userSpaceOnUse">
		<stop  offset="0" style="stop-color:#99C55F"/>
		<stop  offset="0.1378" style="stop-color:#7DB363"/>
		<stop  offset="0.3673" style="stop-color:#559D66"/>
		<stop  offset="0.5909" style="stop-color:#338E67"/>
		<stop  offset="0.8039" style="stop-color:#148667"/>
		<stop  offset="0.9949" style="stop-color:#008367"/>
	</radialGradient>
	<path class="st23" d="M279.5,109c0,0,0,3.4,1.6,3.5c1.6,0.1,2.3-0.6,3-1c0.6-0.4,3.3-2.7,6.1-1.2c0,0-7.6-0.5-9.9,12.3
		c0,0-0.7-1.4-0.8-1.7c0,0,0.6-0.7,0.5-1.4c0,0,0.1-0.1,0.4-0.3c0,0,0.5-1.3,0.6-2.6c0,0,0.3-0.7-0.6-1.8c-0.1-0.2-0.7-1.1-0.7-1.1
		s0-1.1-1.1-1.8C278.5,112,279,110,279.5,109z"/>
	
		<radialGradient id="SVGID_21_" cx="351.1094" cy="-8.1875" r="2.4463" gradientTransform="matrix(1 0 0 -1 -71 103.5)" gradientUnits="userSpaceOnUse">
		<stop  offset="0" style="stop-color:#99C55F"/>
		<stop  offset="0.9949" style="stop-color:#008367"/>
	</radialGradient>
	<circle class="st24" cx="281.9" cy="110.2" r="1.5"/>
	
		<radialGradient id="SVGID_22_" cx="341.5913" cy="-7.833" r="2.3576" gradientTransform="matrix(1 0 0 -1 -71 103.5)" gradientUnits="userSpaceOnUse">
		<stop  offset="0" style="stop-color:#99C55F"/>
		<stop  offset="0.183" style="stop-color:#7DB363"/>
		<stop  offset="0.5363" style="stop-color:#499867"/>
		<stop  offset="0.8194" style="stop-color:#208867"/>
		<stop  offset="0.9949" style="stop-color:#008367"/>
	</radialGradient>
	<circle class="st25" cx="269.2" cy="110.2" r="1.5"/>
	
		<radialGradient id="SVGID_23_" cx="346.5566" cy="21.1475" r="9.9751" gradientTransform="matrix(1 0 0 -1.7703 -71 167.8638)" gradientUnits="userSpaceOnUse">
		<stop  offset="0" style="stop-color:#8EC046"/>
		<stop  offset="2.842927e-02" style="stop-color:#89BD48"/>
		<stop  offset="0.3019" style="stop-color:#5CA25A"/>
		<stop  offset="0.5615" style="stop-color:#379063"/>
		<stop  offset="0.7993" style="stop-color:#168666"/>
		<stop  offset="0.9949" style="stop-color:#008367"/>
	</radialGradient>
	<path class="st26" d="M272.3,122.7h6.5c0,0-1-2.4-1-2.8c0,0-0.7-0.3-1.5-0.8c0,0-0.5-0.3-0.7-0.4s-0.7-0.3-1.7,0.4
		c0,0-0.5,0.4-0.6,0.4C273.3,119.6,272.4,122.6,272.3,122.7z"/>
	
		<radialGradient id="SVGID_24_" cx="347.2632" cy="39.7329" r="11.0989" gradientTransform="matrix(1 0 0 -1.6 -71 182.051)" gradientUnits="userSpaceOnUse">
		<stop  offset="0" style="stop-color:#99C55F"/>
		<stop  offset="0.183" style="stop-color:#7DB363"/>
		<stop  offset="0.5363" style="stop-color:#499867"/>
		<stop  offset="0.8194" style="stop-color:#208867"/>
		<stop  offset="0.9949" style="stop-color:#008367"/>
	</radialGradient>
	<path class="st27" d="M282.4,103c-1.4,1.2-2.6,2.6-3.5,4.3c-0.7,1.4-1.3,2.8-1.5,4.3l-1.2-0.6l0.5,1.7c0.1,0.4,0.2,0.8,0.1,1.1
		c-0.2,0-0.5-0.1-0.7-0.2c0.1-0.4,0.1-0.9-0.3-1.2c-0.2-0.2-0.5-0.3-0.7-0.3c0,0-0.8,0.1-1.2,0.6c-0.1,0.1-0.2-0.6-0.2-0.6
		c-0.4-2.2-1.2-4.3-2.5-6.1c-0.8-1-1.6-2-2.6-2.8c-0.1-0.1-0.1-0.1-0.2-0.2c0,0,0-0.1,0-0.1c4.7,2.4,9.4,2.5,14.1,0
		C282.6,103,282.4,103,282.4,103z"/>
	
		<radialGradient id="SVGID_25_" cx="-7.6426" cy="18.4946" r="6.2897" gradientTransform="matrix(-4.371139e-08 -1 -1.8364 8.027290e-08 309.4388 110.6645)" gradientUnits="userSpaceOnUse">
		<stop  offset="0" style="stop-color:#008367"/>
		<stop  offset="0.1733" style="stop-color:#1D8767"/>
		<stop  offset="0.4341" style="stop-color:#439567"/>
		<stop  offset="0.7482" style="stop-color:#71AC64"/>
		<stop  offset="1" style="stop-color:#99C55F"/>
	</radialGradient>
	<path class="st28" d="M279.4,118.9c0,0-0.1,0-0.2,0.1c-0.2,0.1-0.7,0.3-1.3,0.2c-0.2-0.1-0.4-0.1-0.5-0.2c-1.1-0.7-2-1.8-4-0.3
		c0,0-1,0.8-1.6,0.5c-0.1-0.1-1.4-1.8-1.4-1.9c0-0.1,0-0.5,0.2-0.9c0.3-0.4,1.3-2.2,2.1-2.4c0.1,0,0.3-0.1,0.5-0.2
		c0.6,0,0.3-0.2,0.8-0.3c0.1,0,0.1-0.3,0.3-0.5c0.2-0.1,0.4-0.2,0.8-0.2c0.5,0,0.2,1,0.3,1.3c0,0,1.5,0.7,1.9,0.5
		c0.7-0.4,0.2-2,0.2-2c0.9,0.5,1.3,0.9,1.3,1.6c0,0,0.2,0.4,0.7,1.1c0.2,0.3,0.5,0.8,0.6,1.1C280,116.6,279.6,118.1,279.4,118.9z"/>
	
		<radialGradient id="SVGID_26_" cx="349.8198" cy="-16.563" r="1.0599" gradientTransform="matrix(1 0 0 -1 -71 103.5)" gradientUnits="userSpaceOnUse">
		<stop  offset="0" style="stop-color:#008367"/>
		<stop  offset="0.2217" style="stop-color:#128666"/>
		<stop  offset="0.4412" style="stop-color:#2F8D64"/>
		<stop  offset="0.6599" style="stop-color:#4F9B5E"/>
		<stop  offset="0.8767" style="stop-color:#75B051"/>
		<stop  offset="1" style="stop-color:#8EC046"/>
	</radialGradient>
	<path class="st29" d="M279.2,119.9c-0.1,0.1-0.1,0.5-0.1,0.5c0,0-0.2,0.2-0.3,0.2c-0.1,0-0.3-0.1-0.3-0.1c-0.1-0.1-0.1-0.2-0.2-0.3
		c-0.1-0.1-0.2-0.4-0.2-0.5c-0.1-0.3,0.2-0.1,0.4-0.1c0.1,0,0.1,0,0.3,0c0,0,0.2-0.1,0.3-0.1c0.1,0,0.1,0.2,0.1,0.3
		C279.3,119.8,279.3,119.8,279.2,119.9z"/>
</g>
<g>
	<text transform="matrix(1 0 0 1 301.7207 108.6709)" class="st1"><tspan x="0" y="0" class="st2 st0 st30">YOUNGHORT </tspan><tspan x="104.9" y="0" class="st3 st0 st30">AUS</tspan></text>
</g>
</svg>
