<?xml version="1.0" encoding="utf-8"?>
<!-- Generator: Adobe Illustrator 16.0.4, SVG Export Plug-In . SVG Version: 6.00 Build 0)  -->
<!DOCTYPE svg PUBLIC "-//W3C//DTD SVG 1.1//EN" "http://www.w3.org/Graphics/SVG/1.1/DTD/svg11.dtd">
<svg version="1.1" id="Layer_1" xmlns="http://www.w3.org/2000/svg" xmlns:xlink="http://www.w3.org/1999/xlink" x="0px" y="0px"
	 width="700px" height="200px" viewBox="0 0 700 200" style="enable-background:new 0 0 700 200;" xml:space="preserve">
<style type="text/css">
<![CDATA[
	.st0{font-family:'ReklameScript-RegularDEMO';}
	.st1{fill:#8EC045;}
	.st2{fill:#F9AF32;}
	.st3{fill:url(#SVGID_1_);}
	.st4{fill:url(#SVGID_2_);}
	.st5{fill:url(#SVGID_3_);}
	.st6{fill:url(#SVGID_4_);}
	.st7{fill:url(#SVGID_5_);}
	.st8{fill:url(#SVGID_6_);}
	.st9{fill:url(#SVGID_7_);}
	.st10{fill:url(#SVGID_8_);}
	.st11{fill:url(#SVGID_9_);}
	.st12{font-size:110;}
	.st13{letter-spacing:4;}
	.st14{font-size:90;}
	.st15{fill:url(#SVGID_10_);}
	.st16{fill:url(#SVGID_11_);}
	.st17{fill:url(#SVGID_12_);}
	.st18{fill:url(#SVGID_13_);}
	.st19{fill:url(#SVGID_14_);}
	.st20{fill:url(#SVGID_15_);}
	.st21{fill:url(#SVGID_16_);}
	.st22{fill:url(#SVGID_17_);}
	.st23{fill:url(#SVGID_18_);}
	.st24{fill:url(#SVGID_19_);}
	.st25{fill:url(#SVGID_20_);}
	.st26{fill:url(#SVGID_21_);}
	.st27{fill:url(#SVGID_22_);}
	.st28{fill:url(#SVGID_23_);}
	.st29{fill-rule:evenodd;clip-rule:evenodd;fill:url(#SVGID_24_);}
	.st30{fill-rule:evenodd;clip-rule:evenodd;fill:url(#SVGID_25_);}
	.st31{fill-rule:evenodd;clip-rule:evenodd;fill:url(#SVGID_26_);}
]]>
</style>
<g>
	
		<radialGradient id="SVGID_1_" cx="140.5332" cy="91.7515" r="50.0937" gradientTransform="matrix(1 5.496782e-03 -9.723918e-03 1.769 0.8943 -71.3287)" gradientUnits="userSpaceOnUse">
		<stop  offset="0" style="stop-color:#008367"/>
		<stop  offset="0.2616" style="stop-color:#49985F"/>
		<stop  offset="0.5541" style="stop-color:#6FAD54"/>
		<stop  offset="0.8102" style="stop-color:#86BB4A"/>
		<stop  offset="1" style="stop-color:#8EC046"/>
	</radialGradient>
	<path class="st3" d="M138.8,6.4c0,0-29.8,35.7,0,63C138.8,69.4,168,44.3,138.8,6.4z"/>
	<radialGradient id="SVGID_2_" cx="175.3818" cy="47.8804" r="26.24" gradientUnits="userSpaceOnUse">
		<stop  offset="0" style="stop-color:#AB791E"/>
		<stop  offset="0.2066" style="stop-color:#BC8422"/>
		<stop  offset="0.7244" style="stop-color:#E7A22E"/>
		<stop  offset="1" style="stop-color:#F9AF33"/>
	</radialGradient>
	<path class="st4" d="M174.4,16.7c0,0-22.6,9.2-16.4,30.9C158,47.6,178.7,43.9,174.4,16.7z"/>
	
		<radialGradient id="SVGID_3_" cx="100.1816" cy="42.769" r="18.0812" gradientTransform="matrix(0.8213 -0.5705 1.156 1.664 -31.5348 28.757)" gradientUnits="userSpaceOnUse">
		<stop  offset="0" style="stop-color:#004234"/>
		<stop  offset="0.3069" style="stop-color:#045B48"/>
		<stop  offset="0.6094" style="stop-color:#047058"/>
		<stop  offset="0.8505" style="stop-color:#017E63"/>
		<stop  offset="1" style="stop-color:#008367"/>
	</radialGradient>
	<path class="st5" d="M102.6,16.6c0,0-5.3,23.8,16.1,31.1C118.7,47.7,127.4,28.6,102.6,16.6z"/>
	
		<radialGradient id="SVGID_4_" cx="107.4092" cy="88.9316" r="35.453" gradientTransform="matrix(0.7948 -0.6069 1.1462 1.5012 -79.8973 20.6087)" gradientUnits="userSpaceOnUse">
		<stop  offset="0" style="stop-color:#AB791E"/>
		<stop  offset="0.2066" style="stop-color:#BC8422"/>
		<stop  offset="0.7244" style="stop-color:#E7A22E"/>
		<stop  offset="1" style="stop-color:#F9AF33"/>
	</radialGradient>
	<path class="st6" d="M109.2,48.9c0,0-7.1,31.7,21.4,41.2C130.6,90.1,142.1,64.8,109.2,48.9z"/>
	
		<radialGradient id="SVGID_5_" cx="165.8652" cy="87.0459" r="35.3983" gradientTransform="matrix(-0.6573 -0.7537 1.2603 -1.0991 165.1777 307.7255)" gradientUnits="userSpaceOnUse">
		<stop  offset="0" style="stop-color:#004234"/>
		<stop  offset="0.3069" style="stop-color:#045B48"/>
		<stop  offset="0.6094" style="stop-color:#047058"/>
		<stop  offset="0.8505" style="stop-color:#017E63"/>
		<stop  offset="1" style="stop-color:#008367"/>
	</radialGradient>
	<path class="st7" d="M167.8,49.1c0,0-30.1,12-22,40.9C145.8,90,173.2,85.2,167.8,49.1z"/>
	
		<radialGradient id="SVGID_6_" cx="185.9048" cy="82.9028" r="16.689" gradientTransform="matrix(0.7832 0.6218 -1.1586 1.4594 136.3574 -153.6744)" gradientUnits="userSpaceOnUse">
		<stop  offset="0" style="stop-color:#AB791E"/>
		<stop  offset="0.4888" style="stop-color:#D19327"/>
		<stop  offset="1" style="stop-color:#F9AF33"/>
	</radialGradient>
	<path class="st8" d="M179.1,57.9c0,0-14.3,12.9-3.8,27.3C175.2,85.3,189.5,76.9,179.1,57.9z"/>
	
		<radialGradient id="SVGID_7_" cx="91.2876" cy="77.248" r="16.3248" gradientTransform="matrix(0.8557 -0.5175 1.2668 2.0947 -84.6868 -37.3266)" gradientUnits="userSpaceOnUse">
		<stop  offset="0" style="stop-color:#004234"/>
		<stop  offset="0.3069" style="stop-color:#045B48"/>
		<stop  offset="0.6094" style="stop-color:#047058"/>
		<stop  offset="0.8505" style="stop-color:#017E63"/>
		<stop  offset="1" style="stop-color:#008367"/>
	</radialGradient>
	<path class="st9" d="M97.9,57.9c0,0,14.3,12.9,3.8,27.3C101.7,85.3,87.4,76.9,97.9,57.9z"/>
	<radialGradient id="SVGID_8_" cx="86.0547" cy="59.4214" r="29.9737" gradientUnits="userSpaceOnUse">
		<stop  offset="0" style="stop-color:#AB791E"/>
		<stop  offset="0.2066" style="stop-color:#BC8422"/>
		<stop  offset="0.7244" style="stop-color:#E7A22E"/>
		<stop  offset="1" style="stop-color:#F9AF33"/>
	</radialGradient>
	<path class="st10" d="M77.1,36.6c0,0,19.2-2.2,23,15.2C100.2,51.8,84.5,57,77.1,36.6z"/>
	
		<radialGradient id="SVGID_9_" cx="196.1821" cy="53.3833" r="23.8832" gradientTransform="matrix(0.6903 0.7235 -1.0851 1.0353 118.685 -143.8264)" gradientUnits="userSpaceOnUse">
		<stop  offset="0" style="stop-color:#008367"/>
		<stop  offset="0.2616" style="stop-color:#49985F"/>
		<stop  offset="0.5541" style="stop-color:#6FAD54"/>
		<stop  offset="0.8102" style="stop-color:#86BB4A"/>
		<stop  offset="1" style="stop-color:#8EC046"/>
	</radialGradient>
	<path class="st11" d="M199.7,36.6c0,0-19.2-2.2-23,15.2C176.6,51.8,192.3,57,199.7,36.6z"/>
	<radialGradient id="SVGID_10_" cx="79.5098" cy="72.1641" r="20.6818" gradientUnits="userSpaceOnUse">
		<stop  offset="0" style="stop-color:#008367"/>
		<stop  offset="0.2616" style="stop-color:#49985F"/>
		<stop  offset="0.5541" style="stop-color:#6FAD54"/>
		<stop  offset="0.8102" style="stop-color:#86BB4A"/>
		<stop  offset="1" style="stop-color:#8EC046"/>
	</radialGradient>
	<path class="st15" d="M67.3,58.9c0,0,14.2-9,23.8,3.2C91.1,62,80.8,72.1,67.3,58.9z"/>
	
		<radialGradient id="SVGID_11_" cx="198.1196" cy="67.4043" r="7.4938" gradientTransform="matrix(-0.4113 -0.9115 2.6488 -1.1953 101.0712 328.5585)" gradientUnits="userSpaceOnUse">
		<stop  offset="0" style="stop-color:#004234"/>
		<stop  offset="6.857526e-02" style="stop-color:#014738"/>
		<stop  offset="0.5051" style="stop-color:#046651"/>
		<stop  offset="0.8281" style="stop-color:#027B61"/>
		<stop  offset="1" style="stop-color:#008367"/>
	</radialGradient>
	<path class="st16" d="M209.4,58.9c0,0-14.2-9-23.8,3.2C185.6,62,195.9,72.1,209.4,58.9z"/>
	<radialGradient id="SVGID_12_" cx="75.3286" cy="87.5308" r="20.8674" gradientUnits="userSpaceOnUse">
		<stop  offset="0" style="stop-color:#AB791E"/>
		<stop  offset="0.2066" style="stop-color:#BC8422"/>
		<stop  offset="0.7244" style="stop-color:#E7A22E"/>
		<stop  offset="1" style="stop-color:#F9AF33"/>
	</radialGradient>
	<path class="st17" d="M64.5,78.7c0,0,10.4-10.5,21.1-1.9C85.6,76.8,78.7,87.4,64.5,78.7z"/>
	<radialGradient id="SVGID_13_" cx="87.8423" cy="103.3906" r="17.2077" gradientUnits="userSpaceOnUse">
		<stop  offset="0" style="stop-color:#008367"/>
		<stop  offset="0.2616" style="stop-color:#49985F"/>
		<stop  offset="0.5541" style="stop-color:#6FAD54"/>
		<stop  offset="0.8102" style="stop-color:#86BB4A"/>
		<stop  offset="1" style="stop-color:#8EC046"/>
	</radialGradient>
	<path class="st18" d="M89.4,81.9c0,0,7.9,8.4,1,16.5C90.4,98.4,82.3,92.7,89.4,81.9z"/>
	
		<radialGradient id="SVGID_14_" cx="193.3408" cy="95.6216" r="13.295" gradientTransform="matrix(0.8302 0.5574 -0.9423 1.4035 122.9244 -146.3544)" gradientUnits="userSpaceOnUse">
		<stop  offset="0" style="stop-color:#004234"/>
		<stop  offset="0.3069" style="stop-color:#045B48"/>
		<stop  offset="0.6094" style="stop-color:#047058"/>
		<stop  offset="0.8505" style="stop-color:#017E63"/>
		<stop  offset="1" style="stop-color:#008367"/>
	</radialGradient>
	<path class="st19" d="M187.4,81.9c0,0,7,9.2-0.8,16.5C186.6,98.4,179.2,91.9,187.4,81.9z"/>
	<radialGradient id="SVGID_15_" cx="109.1313" cy="106.0938" r="19.2124" gradientUnits="userSpaceOnUse">
		<stop  offset="0" style="stop-color:#008367"/>
		<stop  offset="0.2616" style="stop-color:#49985F"/>
		<stop  offset="0.5541" style="stop-color:#6FAD54"/>
		<stop  offset="0.8102" style="stop-color:#86BB4A"/>
		<stop  offset="1" style="stop-color:#8EC046"/>
	</radialGradient>
	<path class="st20" d="M109.8,83.4c0,0,11.9,7.8,5.9,19.6C115.7,102.9,104.3,98.5,109.8,83.4z"/>
	<radialGradient id="SVGID_16_" cx="173.0264" cy="104.9434" r="19.4283" gradientUnits="userSpaceOnUse">
		<stop  offset="0" style="stop-color:#008367"/>
		<stop  offset="0.2616" style="stop-color:#49985F"/>
		<stop  offset="0.5541" style="stop-color:#6FAD54"/>
		<stop  offset="0.8102" style="stop-color:#86BB4A"/>
		<stop  offset="1" style="stop-color:#8EC046"/>
	</radialGradient>
	<path class="st21" d="M167.2,83.4c0,0-11.9,7.8-5.9,19.6C161.3,102.9,172.7,98.5,167.2,83.4z"/>
	<radialGradient id="SVGID_17_" cx="205.2485" cy="87.8179" r="17.3927" gradientUnits="userSpaceOnUse">
		<stop  offset="0" style="stop-color:#008367"/>
		<stop  offset="0.2616" style="stop-color:#49985F"/>
		<stop  offset="0.5541" style="stop-color:#6FAD54"/>
		<stop  offset="0.8102" style="stop-color:#86BB4A"/>
		<stop  offset="1" style="stop-color:#8EC046"/>
	</radialGradient>
	<path class="st22" d="M211.9,79.1c0,0-9.6-10.5-20.3-2.7C191.7,76.4,197.9,87,211.9,79.1z"/>
	
		<radialGradient id="SVGID_18_" cx="138.5269" cy="82.3794" r="14.2022" gradientTransform="matrix(1 0 0 1.8311 0 -68.4671)" gradientUnits="userSpaceOnUse">
		<stop  offset="0" style="stop-color:#8EC046"/>
		<stop  offset="0.245" style="stop-color:#68A856"/>
		<stop  offset="0.5465" style="stop-color:#3E9361"/>
		<stop  offset="0.807" style="stop-color:#1A8766"/>
		<stop  offset="0.9949" style="stop-color:#008367"/>
	</radialGradient>
	<circle class="st23" cx="138.4" cy="101.2" r="9.9"/>
	
		<radialGradient id="SVGID_19_" cx="136.8506" cy="149.3184" r="32.2476" gradientTransform="matrix(0.9601 -0.2797 0.5034 1.7282 -69.7061 -70.4574)" gradientUnits="userSpaceOnUse">
		<stop  offset="0" style="stop-color:#99C55F"/>
		<stop  offset="0.1378" style="stop-color:#7DB363"/>
		<stop  offset="0.3673" style="stop-color:#559D66"/>
		<stop  offset="0.5909" style="stop-color:#338E67"/>
		<stop  offset="0.8039" style="stop-color:#148667"/>
		<stop  offset="0.9949" style="stop-color:#008367"/>
	</radialGradient>
	<path class="st24" d="M81.3,137c0,0,8.6-5.1,19.3,1.9c10.7,6.9,15,7.8,17.7,6.8c2.7-1,5.4-6.5,5.2-13.5c0,0,3.2,5.2,4.6,15.9
		c0,0-4-1.1-9.8,8.3c0,0-4.7,6.3-2.3,9.7c2.4,3.4,5.4,9.7,9.4,8.9c0,0-1,3.4-4.7,10.9C120.7,185.8,114.8,139.8,81.3,137z"/>
	
		<radialGradient id="SVGID_20_" cx="143.1064" cy="148.1934" r="37.5744" gradientTransform="matrix(0.9603 0.279 -0.5022 1.7285 80.1026 -147.8885)" gradientUnits="userSpaceOnUse">
		<stop  offset="0" style="stop-color:#99C55F"/>
		<stop  offset="0.1378" style="stop-color:#7DB363"/>
		<stop  offset="0.3673" style="stop-color:#559D66"/>
		<stop  offset="0.5909" style="stop-color:#338E67"/>
		<stop  offset="0.8039" style="stop-color:#148667"/>
		<stop  offset="0.9949" style="stop-color:#008367"/>
	</radialGradient>
	<path class="st25" d="M154.2,132.1c0,0,0,13.3,6.2,13.8c6.3,0.5,9.3-2.5,11.8-4c2.4-1.4,13.1-10.9,24.2-4.9c0,0-30.3-2-39.4,48.8
		c0,0-2.9-5.7-3.2-6.7c0,0,2.4-2.6,2-5.4c0,0,0.5-0.4,1.4-1c0,0,1.8-5.3,2.4-10.4c0,0,1-2.8-2.3-7c-0.5-0.7-2.6-4.3-2.6-4.3
		s0.1-4.3-4.4-7C150.3,143.9,152.1,135.8,154.2,132.1z"/>
	<radialGradient id="SVGID_21_" cx="156.625" cy="142.6582" r="9.6969" gradientUnits="userSpaceOnUse">
		<stop  offset="0" style="stop-color:#99C55F"/>
		<stop  offset="0.9949" style="stop-color:#008367"/>
	</radialGradient>
	<circle class="st26" cx="163.6" cy="136.7" r="6"/>
	<radialGradient id="SVGID_22_" cx="118.896" cy="141.252" r="9.3447" gradientUnits="userSpaceOnUse">
		<stop  offset="0" style="stop-color:#99C55F"/>
		<stop  offset="0.183" style="stop-color:#7DB363"/>
		<stop  offset="0.5363" style="stop-color:#499867"/>
		<stop  offset="0.8194" style="stop-color:#208867"/>
		<stop  offset="0.9949" style="stop-color:#008367"/>
	</radialGradient>
	<circle class="st27" cx="113.3" cy="136.7" r="6"/>
	
		<radialGradient id="SVGID_23_" cx="138.5776" cy="216.9307" r="39.5273" gradientTransform="matrix(1 0 0 1.7703 0 -167.1125)" gradientUnits="userSpaceOnUse">
		<stop  offset="0" style="stop-color:#8EC046"/>
		<stop  offset="2.842927e-02" style="stop-color:#89BD48"/>
		<stop  offset="0.3019" style="stop-color:#5CA25A"/>
		<stop  offset="0.5615" style="stop-color:#379063"/>
		<stop  offset="0.7993" style="stop-color:#168666"/>
		<stop  offset="0.9949" style="stop-color:#008367"/>
	</radialGradient>
	<path class="st28" d="M125.7,186.4h25.7c0,0-3.8-9.4-3.9-11.2c0,0-2.6-1-5.9-3.1c0,0-2-1.2-2.6-1.4c-0.6-0.2-2.6-1.1-6.8,1.7
		c0,0-1.9,1.5-2.4,1.6C129.8,174,125.9,186,125.7,186.4z"/>
	
		<radialGradient id="SVGID_24_" cx="141.3755" cy="169.582" r="44.0012" gradientTransform="matrix(1 0 0 1.6 0 -101.7492)" gradientUnits="userSpaceOnUse">
		<stop  offset="0" style="stop-color:#99C55F"/>
		<stop  offset="0.183" style="stop-color:#7DB363"/>
		<stop  offset="0.5363" style="stop-color:#499867"/>
		<stop  offset="0.8194" style="stop-color:#208867"/>
		<stop  offset="0.9949" style="stop-color:#008367"/>
	</radialGradient>
	<path class="st29" d="M165.7,108.4c-5.6,4.8-10.2,10.4-13.8,16.9c-2.9,5.4-5,11-6.1,17l-4.7-2.5l2,6.7c0.4,1.4,0.6,3.3,0.5,4.3
		c-0.8-0.2-1.8-0.5-2.9-0.9c0.2-1.6,0.3-3.4-1-4.8c-0.7-0.8-1.8-1.3-2.9-1.3c0,0-3,0.5-4.8,2.2c-0.5,0.5-0.6-2.3-0.6-2.3
		c-1.4-8.8-4.7-16.9-10-24.3c-3-4.1-6.3-7.9-10.2-11.1c-0.3-0.2-0.5-0.5-0.8-0.7c0-0.1,0-0.3,0.1-0.4c18.6,9.7,37.2,9.8,55.7,0.1
		C166.3,108.1,165.9,108.2,165.7,108.4z"/>
	
		<radialGradient id="SVGID_25_" cx="138.2671" cy="168.8965" r="24.9349" gradientTransform="matrix(-4.371139e-08 -1 1.8364 -8.027290e-08 -171.8995 307.1636)" gradientUnits="userSpaceOnUse">
		<stop  offset="0" style="stop-color:#008367"/>
		<stop  offset="0.1733" style="stop-color:#1D8767"/>
		<stop  offset="0.4341" style="stop-color:#439567"/>
		<stop  offset="0.7482" style="stop-color:#71AC64"/>
		<stop  offset="1" style="stop-color:#99C55F"/>
	</radialGradient>
	<path class="st30" d="M153.9,171.2c0,0-0.2,0.2-0.6,0.4c-0.9,0.5-2.7,1.3-5.1,0.7c-0.7-0.2-1.4-0.4-2.1-0.9c-4.5-2.6-7.9-7-16-1.2
		c0,0-4,3.2-6.2,1.9c-0.4-0.3-5.5-7.1-5.5-7.6c0-0.3-0.1-1.9,0.9-3.5c1-1.6,5.1-8.9,8.2-9.6c0.5-0.1,1.3-0.5,2-0.6
		c2.4-0.1,1.2-0.7,3.3-1.3c0.5-0.1,0.5-1.3,1-2c0.6-0.6,1.7-0.7,3-0.7c2-0.1,0.6,3.8,1,5.1c0,0,5.9,2.7,7.4,1.9c2.7-1.4,0.8-8,0.8-8
		c3.6,1.9,5,3.6,5,6.5c0,0,0.9,1.7,2.7,4.5c0.6,1,2,3,2.3,4.2C156.2,162.3,154.6,168.1,153.9,171.2z"/>
	<radialGradient id="SVGID_26_" cx="151.5117" cy="175.8604" r="4.2032" gradientUnits="userSpaceOnUse">
		<stop  offset="0" style="stop-color:#008367"/>
		<stop  offset="0.2217" style="stop-color:#128666"/>
		<stop  offset="0.4412" style="stop-color:#2F8D64"/>
		<stop  offset="0.6599" style="stop-color:#4F9B5E"/>
		<stop  offset="0.8767" style="stop-color:#75B051"/>
		<stop  offset="1" style="stop-color:#8EC046"/>
	</radialGradient>
	<path class="st31" d="M153.2,175.1c-0.2,0.4-0.3,1.8-0.4,1.9c0,0-0.9,0.7-1,0.7c-0.2,0-1.1-0.5-1.1-0.5c-0.3-0.4-0.5-0.6-0.7-1
		c-0.2-0.5-0.6-1.4-0.7-1.8c-0.2-1.1,0.7-0.5,1.4-0.3c0.5,0.1,0.5,0.1,1,0c0,0,0.8-0.5,1.1-0.5c0.3,0,0.5,0.6,0.5,1.1
		C153.3,174.7,153.3,174.9,153.2,175.1z"/>
</g>
<g>
	<text transform="matrix(1 0 0 1 270.1611 78.7842)" class="st1 st0 st14">YOUNGHORT</text>
	<text transform="matrix(1 0 0 1 266.2969 181.5176)" class="st2 st0 st12 st13">Australia </text>
</g>
</svg>
